<?xml version="1.0" encoding="UTF-8"?>
<svg xmlns="http://www.w3.org/2000/svg" width="800" height="600" viewBox="0 0 800 600">
  <defs>
    <linearGradient id="heroGradient" x1="0%" y1="0%" x2="100%" y2="100%">
      <stop offset="0%" style="stop-color:#0088cc;stop-opacity:0.9" />
      <stop offset="100%" style="stop-color:#005580;stop-opacity:0.9" />
    </linearGradient>
    <clipPath id="screenClip">
      <rect x="290" y="180" width="220" height="140" rx="8" ry="8" />
    </clipPath>
    <linearGradient id="screenGradient" x1="0%" y1="0%" x2="100%" y2="100%">
      <stop offset="0%" style="stop-color:#ffffff;stop-opacity:1" />
      <stop offset="100%" style="stop-color:#f0f4f8;stop-opacity:1" />
    </linearGradient>
  </defs>
  
  <!-- Fundo abstrato de tecnologia de saúde -->
  <rect width="800" height="600" fill="#f8fbfd" />
  
  <!-- Padrão de circuito/rede no fundo -->
  <g opacity="0.1">
    <circle cx="100" cy="100" r="5" fill="#0088cc" />
    <circle cx="300" cy="150" r="5" fill="#0088cc" />
    <circle cx="500" cy="100" r="5" fill="#0088cc" />
    <circle cx="700" cy="150" r="5" fill="#0088cc" />
    <circle cx="200" cy="250" r="5" fill="#0088cc" />
    <circle cx="400" cy="200" r="5" fill="#0088cc" />
    <circle cx="600" cy="250" r="5" fill="#0088cc" />
    <circle cx="150" cy="350" r="5" fill="#0088cc" />
    <circle cx="350" cy="300" r="5" fill="#0088cc" />
    <circle cx="550" cy="350" r="5" fill="#0088cc" />
    <circle cx="250" cy="450" r="5" fill="#0088cc" />
    <circle cx="450" cy="400" r="5" fill="#0088cc" />
    <circle cx="650" cy="450" r="5" fill="#0088cc" />
    <circle cx="200" cy="550" r="5" fill="#0088cc" />
    <circle cx="400" cy="500" r="5" fill="#0088cc" />
    <circle cx="600" cy="550" r="5" fill="#0088cc" />
    
    <!-- Linhas conectando os círculos -->
    <path d="M100,100 L300,150 L500,100 L700,150" stroke="#0088cc" stroke-width="2" fill="none" />
    <path d="M200,250 L400,200 L600,250" stroke="#0088cc" stroke-width="2" fill="none" />
    <path d="M150,350 L350,300 L550,350" stroke="#0088cc" stroke-width="2" fill="none" />
    <path d="M250,450 L450,400 L650,450" stroke="#0088cc" stroke-width="2" fill="none" />
    <path d="M200,550 L400,500 L600,550" stroke="#0088cc" stroke-width="2" fill="none" />
    <path d="M100,100 L200,250 L150,350 L250,450 L200,550" stroke="#0088cc" stroke-width="2" fill="none" />
    <path d="M300,150 L400,200 L350,300 L450,400 L400,500" stroke="#0088cc" stroke-width="2" fill="none" />
    <path d="M500,100 L600,250 L550,350 L650,450 L600,550" stroke="#0088cc" stroke-width="2" fill="none" />
  </g>
  
  <!-- Elementos de IA e Saúde -->
  
  <!-- Computador/tablet com dados de saúde -->
  <rect x="280" y="170" width="240" height="160" rx="10" ry="10" fill="#333" />
  <rect x="290" y="180" width="220" height="140" rx="8" ry="8" fill="url(#screenGradient)" />
  
  <!-- Dados na tela -->
  <g clip-path="url(#screenClip)">
    <rect x="300" y="190" width="200" height="20" rx="4" ry="4" fill="#0088cc" opacity="0.2" />
    <rect x="300" y="220" width="180" height="10" rx="2" ry="2" fill="#0088cc" opacity="0.15" />
    <rect x="300" y="240" width="150" height="10" rx="2" ry="2" fill="#0088cc" opacity="0.15" />
    <rect x="300" y="260" width="190" height="10" rx="2" ry="2" fill="#0088cc" opacity="0.15" />
    <rect x="300" y="280" width="170" height="10" rx="2" ry="2" fill="#0088cc" opacity="0.15" />
    
    <!-- Gráfico de saúde -->
    <polyline points="310,300 330,290 350,295 370,280 390,285 410,270 430,275 450,260 470,265 490,245" stroke="#0088cc" stroke-width="2" fill="none" />
    <circle cx="310" cy="300" r="3" fill="#0088cc" />
    <circle cx="330" cy="290" r="3" fill="#0088cc" />
    <circle cx="350" cy="295" r="3" fill="#0088cc" />
    <circle cx="370" cy="280" r="3" fill="#0088cc" />
    <circle cx="390" cy="285" r="3" fill="#0088cc" />
    <circle cx="410" cy="270" r="3" fill="#0088cc" />
    <circle cx="430" cy="275" r="3" fill="#0088cc" />
    <circle cx="450" cy="260" r="3" fill="#0088cc" />
    <circle cx="470" cy="265" r="3" fill="#0088cc" />
    <circle cx="490" cy="245" r="3" fill="#0088cc" />
  </g>
  
  <!-- Ícones médicos -->
  <g transform="translate(200, 400)">
    <circle cx="0" cy="0" r="50" fill="url(#heroGradient)" />
    <path d="M-20,-20 L20,-20 L20,20 L-20,20 Z" stroke="white" stroke-width="6" fill="none" />
    <path d="M0,-20 L0,20" stroke="white" stroke-width="6" fill="none" />
  </g>
  
  <!-- Ícone IA -->
  <g transform="translate(600, 400)">
    <circle cx="0" cy="0" r="50" fill="url(#heroGradient)" />
    <circle cx="-15" cy="-10" r="6" fill="white" />
    <circle cx="15" cy="-10" r="6" fill="white" />
    <path d="M-20,15 Q0,35 20,15" stroke="white" stroke-width="6" fill="none" />
  </g>
  
  <!-- Conexão entre medicina e IA -->
  <path d="M250,400 L550,400" stroke="url(#heroGradient)" stroke-width="4" fill="none" stroke-dasharray="10,10" />
  
  <!-- Símbolo da VionIA (simplificado do logo) -->
  <g transform="translate(400, 100)">
    <path d="M-40,-20 L0,40 L40,-20" stroke="url(#heroGradient)" stroke-width="6" fill="none" stroke-linecap="round" stroke-linejoin="round" />
    <path d="M0,40 L60,10" stroke="url(#heroGradient)" stroke-width="3" fill="none" />
    <path d="M40,-20 L60,10" stroke="url(#heroGradient)" stroke-width="3" fill="none" />
    <path d="M60,10 L80,10" stroke="url(#heroGradient)" stroke-width="3" fill="none" />
    <circle cx="-40" cy="-20" r="5" fill="#0088cc" />
    <circle cx="40" cy="-20" r="5" fill="#0088cc" />
    <circle cx="0" cy="40" r="5" fill="#0088cc" />
    <circle cx="60" cy="10" r="5" fill="#0088cc" />
    <circle cx="80" cy="10" r="5" fill="#0088cc" />
  </g>
</svg>
