<?xml version="1.0" encoding="UTF-8"?>
<svg xmlns="http://www.w3.org/2000/svg" width="200" height="60" viewBox="0 0 200 60">
  <g>
    <path d="M40,15 C26.7,15 16,25.7 16,39 C16,52.3 26.7,63 40,63 C53.3,63 64,52.3 64,39 C64,25.7 53.3,15 40,15 Z" fill="#00995D"/>
    <path d="M76,39 C76,25.7 65.3,15 52,15 C38.7,15 28,25.7 28,39 C28,52.3 38.7,63 52,63 C65.3,63 76,52.3 76,39 Z" fill="#00995D"/>
    <path d="M63,30 L51,30 L51,49 L57,49 L57,42 L63,42 L63,49 L69,49 L69,30 L63,30 Z" fill="white"/>
    <path d="M39,30 L33,30 L33,49 L39,49 L39,30 Z" fill="white"/>
    <path d="M30,30 L24,30 L24,49 L30,49 L30,30 Z" fill="white"/>
    <path d="M51,20 L39,20 L39,26 L51,26 L51,20 Z" fill="white"/>
  </g>
  <text x="90" y="45" font-family="Arial, sans-serif" font-size="24" font-weight="bold" fill="#00995D">Unimed</text>
</svg>
